<svg width="324" height="221" viewBox="0 0 324 221" fill="none" xmlns="http://www.w3.org/2000/svg">
<g clip-path="url(#clip0_499_4294)">
<path d="M215.856 123.93C215.856 124.974 216.044 126.051 215.822 127.043C215.081 130.282 214.562 133.583 212.748 136.519C211.288 138.804 209.388 140.775 207.159 142.318C204.165 144.496 201.102 146.617 198.308 149.04C194.886 151.976 191.572 155.055 189.61 159.212C189.04 160.352 189.131 161.84 188.92 163.169L189.49 163.459C190.061 162.998 190.682 162.587 191.201 162.074C193.751 159.554 196.112 156.806 198.849 154.514C202.921 151.093 207.159 147.888 211.493 144.821C215.397 142.099 218.168 138.043 219.284 133.418C220.468 128.834 220.785 124.069 220.219 119.369C219.883 116.415 218.229 116.49 216.227 117.419C215.2 117.892 214.202 118.44 212.862 119.129C212.755 118.359 212.698 117.581 212.691 116.803C213.01 111.757 213.261 106.706 213.74 101.671C214.052 97.6174 214.634 93.5889 215.48 89.6122C216.341 85.9404 217.134 82.1602 219.369 78.9217C220.337 77.5935 221.66 76.5641 223.185 75.9512C223.447 75.954 223.704 76.0229 223.932 76.1515C224.161 76.28 224.353 76.4641 224.491 76.6867C225.135 79.4862 225.945 82.2914 226.133 85.1365C226.635 92.5485 226.772 99.9948 227.188 107.418C227.485 112.738 227.976 118.046 228.415 123.354C228.771 128.217 228.499 133.106 227.605 137.899C226.677 143.457 224.093 148.606 220.191 152.672C217.83 155.129 214.915 157.051 212.246 159.206C208.151 162.513 204.073 165.905 201.484 170.564C199.87 173.466 198.724 176.636 197.52 179.749C196.825 181.556 196.003 182.799 193.796 183.005C191.589 183.21 189.507 184.145 187.329 184.362C184.312 184.652 181.261 184.572 178.204 184.572C177.985 184.524 177.782 184.421 177.615 184.272C177.447 184.123 177.32 183.934 177.246 183.723C177.08 180.65 176.915 177.571 176.938 174.492C176.938 172.297 177.286 170.107 177.4 167.912C177.69 162.826 178.749 157.812 180.542 153.043C182.253 148.35 185.35 144.616 189.239 141.531C192.291 139.114 195.291 136.616 198.479 134.381C201.667 132.146 205.191 130.065 208.579 127.956C210.832 126.547 213.142 125.202 215.423 123.822L215.856 123.93Z" fill="url(#paint0_linear_499_4294)"/>
<path d="M135.704 163.294C136.422 161.441 135.595 160.056 134.928 158.79C132.219 153.658 128.084 149.821 123.419 146.463C120.459 144.325 117.425 142.267 114.682 139.872C112.127 137.643 110.689 134.564 109.925 131.274C109.458 129.29 109.246 127.249 108.967 125.225C108.972 124.676 109.033 124.13 109.15 123.594C111.385 124.945 113.387 126.114 115.355 127.34C118.777 129.478 122.233 131.559 125.563 133.828C131.267 137.728 136.97 141.702 141.23 147.295C143.096 149.864 144.451 152.768 145.222 155.848C147.675 164.731 147.96 173.836 147.886 182.97C147.886 184.173 147.538 184.618 146.289 184.618C144.812 184.618 143.329 185.063 141.863 184.989C139.831 184.919 137.811 184.642 135.835 184.162C133.764 183.592 131.843 182.634 129.778 181.938C129.051 181.74 128.391 181.348 127.87 180.803C127.348 180.259 126.985 179.583 126.818 178.848C125.28 172.717 122.007 167.158 117.391 162.838C114.311 159.987 110.855 157.547 107.513 154.993C103.366 151.823 100.669 147.712 98.861 142.825C96.631 136.827 96.1805 130.687 96.5797 124.398C96.8534 120.247 97.1899 116.102 97.3724 111.946C97.7374 103.553 97.9428 95.1486 98.3933 86.7615C98.5587 83.7682 99.2944 80.7919 99.9218 77.8385C100.258 76.2421 101.821 75.8544 103.224 76.8464C105.882 78.728 107.29 81.4077 108.203 84.4524C110.821 93.1245 111.357 102.059 111.756 111.05C111.853 113.291 112.212 115.515 112.423 117.75C112.427 118.272 112.395 118.794 112.326 119.312C110.952 118.582 109.754 117.984 108.579 117.322C106.868 116.347 104.878 117.088 104.701 119.033C104.377 121.864 104.326 124.721 104.547 127.562C104.901 130.327 105.518 133.051 106.389 135.698C107.712 140.077 110.689 143.15 114.465 145.659C119.841 149.256 124.855 153.367 129.436 157.935C131.147 159.617 132.926 161.224 134.7 162.838C135.011 163.037 135.349 163.191 135.704 163.294Z" fill="url(#paint1_linear_499_4294)"/>
<path d="M99.5454 59.7984C100.215 59.7384 100.889 59.7384 101.559 59.7984C104.41 60.2944 107.262 60.6251 110.005 61.4518C113.438 62.5401 116.809 63.8114 120.105 65.2605C122.524 66.2811 124.816 67.5868 127.177 68.7499C127.513 68.885 127.86 68.9881 128.215 69.0578L128.506 68.6986L121.605 62.3413C122.084 62.2672 122.375 62.1246 122.546 62.2102C124.257 63.1053 125.968 64.0404 127.645 64.9697C128.951 65.6824 130.229 66.4465 131.563 67.0964C131.791 67.1659 132.034 67.1739 132.266 67.1199C132.498 67.0658 132.712 66.9516 132.886 66.7886L125.649 60.9216L125.831 60.6194C129.983 61.965 133.246 64.9469 137.05 67.0508C135.401 64.4794 132.801 62.7176 131.637 59.8668C139.542 64.0974 145.627 70.3293 150.868 77.4449C156.11 84.5605 159.68 92.6909 162.172 101.272L162.742 101.095C163.068 100.103 163.404 99.1167 163.706 98.1189C165.316 92.7714 167.552 87.6328 170.368 82.8101C173.321 77.795 176.926 73.1936 181.09 69.1262C183.662 66.5833 186.422 64.2171 189.2 61.8852C190.283 60.9672 191.538 60.0892 193.448 60.4028C192.525 61.4975 191.538 62.3527 190.973 63.4303C190.471 64.3939 188.475 64.4167 189.262 66.3438C189.57 66.0873 189.798 65.9219 190.004 65.7281C191.806 64.0176 193.996 62.9457 196.277 61.9821C196.791 61.7597 197.15 61.2067 197.652 60.9273C198.164 60.7114 198.694 60.5435 199.237 60.4256L194.561 65.4772L194.743 65.7623L202.642 62.1474L202.859 62.5066C201.775 64.8557 198.57 65.5057 197.868 68.653C206.007 63.8408 214.242 60.3115 223.732 60.5168C223.453 60.7163 223.202 61.0413 222.9 61.0869C216.934 62.4097 211.533 65.1465 206.11 67.8034C197.857 71.8402 190.785 77.4563 184.569 84.1899C181.87 87.0936 179.455 90.2475 177.354 93.6089C175.25 96.9957 172.267 99.4987 168.902 101.517C167.836 102.055 166.672 102.371 165.48 102.446C164.185 102.606 162.857 102.446 161.551 102.515C157.815 102.737 154.861 101.015 152.02 98.8658C149.18 96.7163 147.492 93.4892 145.405 90.6669C141.413 85.2447 136.998 80.1759 131.677 76.008C129.209 74.0526 126.602 72.2804 123.875 70.7056C119.735 68.328 115.514 66.0473 111.18 64.0461C108.414 62.7746 105.374 62.0847 102.465 61.1212C101.479 60.7962 100.509 60.4256 99.5283 60.0778L99.5454 59.7984Z" fill="url(#paint2_linear_499_4294)"/>
<path d="M92.1714 61.0986C94.6637 62.735 96.9678 64.2231 99.2434 65.7511C102.814 68.1515 106.355 70.5918 109.914 72.9922C113.941 75.7061 117.969 78.4068 121.999 81.0942C126.493 84.0989 131.01 87.0694 135.493 90.0913C139.297 92.657 143.044 95.3083 146.854 97.8626C149.962 99.938 153.082 102.008 156.304 103.906C157.148 104.402 158.374 104.311 159.435 104.357C161.02 104.431 162.623 104.277 164.203 104.402C167.562 104.665 170.294 103.262 172.929 101.437C177.634 98.1705 182.367 94.9377 187.09 91.6877C191.042 88.9681 194.989 86.2256 198.964 83.5287C202.836 80.906 206.749 78.3403 210.632 75.729C214.516 73.1176 218.526 70.3865 222.467 67.7011C225.432 65.677 228.375 63.6301 231.341 61.6061C232.128 61.0359 232.767 61.3666 232.921 62.3017C233.274 64.417 232.464 65.8709 230.639 67.0511C227.041 69.4002 223.567 71.9317 220.031 74.372C216.495 76.8123 213.073 79.11 209.634 81.5332C202.945 86.237 196.306 91.015 189.605 95.7017C183.36 100.069 177.018 104.294 170.818 108.718C169.333 109.886 167.477 110.481 165.589 110.395C163.765 110.272 161.935 110.289 160.114 110.446C157.479 110.714 155.357 109.693 153.31 108.257C146.962 103.798 140.592 99.3792 134.25 94.9206C128.022 90.5474 121.828 86.1287 115.594 81.7555C109.891 77.7644 104.125 73.7733 98.3936 69.748C96.8309 68.6533 95.3139 67.4673 93.7398 66.4011C91.8806 65.1126 91.8121 63.3223 92.1714 61.0986Z" fill="#218DB5"/>
<path d="M163.091 78.8987C163.222 78.243 163.296 77.5645 163.484 76.9259C164.243 74.3488 165.366 71.823 165.72 69.1945C165.994 67.1591 165.577 64.9297 165.047 62.9228C163.382 56.537 158.676 52.2836 154.102 47.996C151.16 45.2421 148.257 42.4597 146.654 38.6738C145.79 36.7272 145.13 34.696 144.686 32.613C144.178 30.0381 143.914 27.4208 143.899 24.7961C143.899 22.5896 144.43 20.3888 144.726 18.188L145.24 18.0283C145.585 18.4723 145.86 18.9664 146.055 19.4936C146.363 21.0502 146.5 22.6466 146.785 24.2089C147.658 29.0267 150.053 32.7271 154.41 35.2244C158.283 37.4423 161.984 39.9681 165.743 42.3799C169.289 44.7286 172.026 48.1132 173.579 52.0726C175.057 55.5527 175.283 59.4375 174.218 63.0653C172.564 68.7669 169.045 73.2712 165.315 77.6728C164.767 78.2245 164.176 78.7316 163.547 79.1894L163.091 78.8987Z" fill="#33B4E9"/>
<path d="M160.952 29.1924C157.125 29.1924 153.053 25.1101 152.848 21.4154C152.608 17.2476 157.239 12.9942 160.73 12.9771C164.939 12.9771 169.073 17.5383 169.056 21.2216C169.039 25.0873 164.642 29.4205 160.952 29.1924Z" fill="#33B4E9"/>
<path d="M212.338 89.0137C212.064 90.7242 211.87 92.1153 211.625 93.4894C211.208 95.8271 210.553 98.1419 210.364 100.491C209.948 105.657 209.714 110.839 209.509 116.022C209.458 117.351 209.948 118.702 209.891 120.013C209.837 120.912 209.477 121.765 208.87 122.431C207.918 123.383 206.692 124.061 205.283 125.065C205.215 124.52 205.175 123.972 205.163 123.423C205.494 117.151 205.733 110.908 206.212 104.659C206.448 101.642 206.913 98.6477 207.604 95.7017C208.237 93.1017 209.486 90.707 212.338 89.0137Z" fill="#218DB5"/>
<path d="M112.966 89.0703C115.247 91.0887 116.958 93.3807 117.574 96.5679C119.182 105.263 119.119 114.055 119.41 122.835C119.41 123.434 119.41 124.033 119.41 124.631C117.277 124.603 115.19 122.562 115.161 120.612C115.076 115.189 115.241 109.744 114.836 104.345C114.528 100.285 113.468 96.2885 112.783 92.2518C112.612 91.2369 112.612 90.1992 112.532 89.1672L112.966 89.0703Z" fill="#218DB5"/>
<path d="M160.701 69.5593C158.825 64.3082 154.502 61.0069 150.846 57.2268C147.892 54.165 145.337 50.8182 143.939 46.7529C143.731 45.8362 143.624 44.8993 143.62 43.9591L144.23 43.5942C145.485 45.0139 146.688 46.445 148 47.8305C150.492 50.4191 153.133 52.8707 155.563 55.522C158.614 58.8745 160.695 62.7573 161.186 67.3528C161.207 68.0802 161.175 68.8082 161.089 69.5308L160.701 69.5593Z" fill="#FF9E3C"/>
<path d="M198.433 129.712C198.365 129.079 198.333 128.443 198.336 127.807C198.684 122.494 198.804 117.145 199.477 111.871C199.984 107.994 200.515 104.009 202.619 100.531C202.973 100.019 203.354 99.5257 203.76 99.0542L204.29 99.1967C204.165 100.639 204.068 102.082 203.908 103.519C203.828 104.254 203.566 104.972 203.52 105.708C203.161 111.951 202.796 118.2 202.522 124.449C202.454 126.125 202.169 127.539 200.566 128.395C199.933 128.731 199.346 129.142 198.433 129.712Z" fill="#218DB5"/>
<path d="M120.995 98.5122C122.079 100.827 123.328 103.073 124.212 105.468C126.225 110.925 125.7 116.7 126.071 122.362C126.197 124.272 126.396 126.176 126.545 128.064C126.584 128.503 126.545 128.947 126.545 129.86C125.085 128.754 123.893 127.95 122.843 127.009C122.512 126.707 122.484 125.983 122.455 125.447C122.164 119.471 121.982 113.473 121.588 107.532C121.423 105.08 120.796 102.663 120.408 100.228C120.368 99.716 120.368 99.2013 120.408 98.689L120.995 98.5122Z" fill="#218DB5"/>
<path d="M144.914 57.9399C148.604 62.0793 153.469 65.1981 155.67 70.626C156.016 71.6992 156.279 72.7971 156.457 73.9101L156.11 74.0527C155.933 73.9443 155.67 73.8759 155.585 73.7163C153.714 70.187 150.823 67.5357 148.074 64.7363C146.707 63.2612 145.481 61.6616 144.412 59.9583C144.104 59.5079 144.304 58.7211 144.27 58.0882L144.914 57.9399Z" fill="#FF9E3C"/>
<path d="M158.095 112.846H166.233C165.794 114.728 160.273 115.058 158.095 112.846Z" fill="#218DB5"/>
<path d="M150.84 7.43491C151.923 7.43491 152.802 6.55678 152.802 5.47356C152.802 4.39033 151.923 3.51221 150.84 3.51221C149.756 3.51221 148.878 4.39033 148.878 5.47356C148.878 6.55678 149.756 7.43491 150.84 7.43491Z" fill="#F99D3F"/>
<path d="M161.061 3.9227C162.144 3.9227 163.022 3.04458 163.022 1.96135C163.022 0.878127 162.144 0 161.061 0C159.977 0 159.099 0.878127 159.099 1.96135C159.099 3.04458 159.977 3.9227 161.061 3.9227Z" fill="#F99D3F"/>
<path d="M169.415 5.47349C170.499 5.47349 171.377 4.59536 171.377 3.51213C171.377 2.42891 170.499 1.55078 169.415 1.55078C168.331 1.55078 167.453 2.42891 167.453 3.51213C167.453 4.59536 168.331 5.47349 169.415 5.47349Z" fill="#F99D3F"/>
<path d="M173.334 10.5423C174.417 10.5423 175.296 9.66421 175.296 8.58098C175.296 7.49776 174.417 6.61963 173.334 6.61963C172.25 6.61963 171.372 7.49776 171.372 8.58098C171.372 9.66421 172.25 10.5423 173.334 10.5423Z" fill="#F99D3F"/>
</g>
<path d="M9.94 210.34H4.38L3.46 213H0.52L5.54 199.02H8.8L13.82 213H10.86L9.94 210.34ZM9.18 208.1L7.16 202.26L5.14 208.1H9.18ZM19.9364 213.18C19.0297 213.18 18.2164 213.02 17.4964 212.7C16.7764 212.367 16.2031 211.92 15.7764 211.36C15.3631 210.8 15.1364 210.18 15.0964 209.5H17.9164C17.9697 209.927 18.1764 210.28 18.5364 210.56C18.9097 210.84 19.3697 210.98 19.9164 210.98C20.4497 210.98 20.8631 210.873 21.1564 210.66C21.4631 210.447 21.6164 210.173 21.6164 209.84C21.6164 209.48 21.4297 209.213 21.0564 209.04C20.6964 208.853 20.1164 208.653 19.3164 208.44C18.4897 208.24 17.8097 208.033 17.2764 207.82C16.7564 207.607 16.3031 207.28 15.9164 206.84C15.5431 206.4 15.3564 205.807 15.3564 205.06C15.3564 204.447 15.5297 203.887 15.8764 203.38C16.2364 202.873 16.7431 202.473 17.3964 202.18C18.0631 201.887 18.8431 201.74 19.7364 201.74C21.0564 201.74 22.1097 202.073 22.8964 202.74C23.6831 203.393 24.1164 204.28 24.1964 205.4H21.5164C21.4764 204.96 21.2897 204.613 20.9564 204.36C20.6364 204.093 20.2031 203.96 19.6564 203.96C19.1497 203.96 18.7564 204.053 18.4764 204.24C18.2097 204.427 18.0764 204.687 18.0764 205.02C18.0764 205.393 18.2631 205.68 18.6364 205.88C19.0097 206.067 19.5897 206.26 20.3764 206.46C21.1764 206.66 21.8364 206.867 22.3564 207.08C22.8764 207.293 23.3231 207.627 23.6964 208.08C24.0831 208.52 24.2831 209.107 24.2964 209.84C24.2964 210.48 24.1164 211.053 23.7564 211.56C23.4097 212.067 22.9031 212.467 22.2364 212.76C21.5831 213.04 20.8164 213.18 19.9364 213.18ZM32.8348 201.76C33.6748 201.76 34.4215 201.947 35.0748 202.32C35.7282 202.68 36.2348 203.22 36.5948 203.94C36.9682 204.647 37.1548 205.5 37.1548 206.5V213H34.3548V206.88C34.3548 206 34.1348 205.327 33.6948 204.86C33.2548 204.38 32.6548 204.14 31.8948 204.14C31.1215 204.14 30.5082 204.38 30.0548 204.86C29.6148 205.327 29.3948 206 29.3948 206.88V213H26.5948V198.2H29.3948V203.3C29.7548 202.82 30.2348 202.447 30.8348 202.18C31.4348 201.9 32.1015 201.76 32.8348 201.76ZM50.2775 201.92V213H47.4575V211.6C47.0975 212.08 46.6242 212.46 46.0375 212.74C45.4642 213.007 44.8375 213.14 44.1575 213.14C43.2908 213.14 42.5242 212.96 41.8575 212.6C41.1908 212.227 40.6642 211.687 40.2775 210.98C39.9042 210.26 39.7175 209.407 39.7175 208.42V201.92H42.5175V208.02C42.5175 208.9 42.7375 209.58 43.1775 210.06C43.6175 210.527 44.2175 210.76 44.9775 210.76C45.7508 210.76 46.3575 210.527 46.7975 210.06C47.2375 209.58 47.4575 208.9 47.4575 208.02V201.92H50.2775ZM55.8402 203.64C56.2002 203.053 56.6668 202.593 57.2402 202.26C57.8268 201.927 58.4935 201.76 59.2402 201.76V204.7H58.5002C57.6202 204.7 56.9535 204.907 56.5002 205.32C56.0602 205.733 55.8402 206.453 55.8402 207.48V213H53.0402V201.92H55.8402V203.64ZM74.0317 199.04V208.84C74.0317 210.2 73.6384 211.26 72.8517 212.02C72.0651 212.767 71.0117 213.14 69.6917 213.14C68.3584 213.14 67.2784 212.753 66.4517 211.98C65.6384 211.207 65.2317 210.127 65.2317 208.74H68.0317C68.0451 209.34 68.1851 209.807 68.4517 210.14C68.7317 210.473 69.1317 210.64 69.6517 210.64C70.1584 210.64 70.5451 210.48 70.8117 210.16C71.0784 209.84 71.2117 209.4 71.2117 208.84V199.04H74.0317ZM76.578 207.42C76.578 206.3 76.798 205.307 77.238 204.44C77.6913 203.573 78.298 202.907 79.058 202.44C79.8313 201.973 80.6913 201.74 81.638 201.74C82.4646 201.74 83.1846 201.907 83.798 202.24C84.4246 202.573 84.9246 202.993 85.298 203.5V201.92H88.118V213H85.298V211.38C84.938 211.9 84.438 212.333 83.798 212.68C83.1713 213.013 82.4446 213.18 81.618 213.18C80.6846 213.18 79.8313 212.94 79.058 212.46C78.298 211.98 77.6913 211.307 77.238 210.44C76.798 209.56 76.578 208.553 76.578 207.42ZM85.298 207.46C85.298 206.78 85.1646 206.2 84.898 205.72C84.6313 205.227 84.2713 204.853 83.818 204.6C83.3646 204.333 82.878 204.2 82.358 204.2C81.838 204.2 81.358 204.327 80.918 204.58C80.478 204.833 80.118 205.207 79.838 205.7C79.5713 206.18 79.438 206.753 79.438 207.42C79.438 208.087 79.5713 208.673 79.838 209.18C80.118 209.673 80.478 210.053 80.918 210.32C81.3713 210.587 81.8513 210.72 82.358 210.72C82.878 210.72 83.3646 210.593 83.818 210.34C84.2713 210.073 84.6313 209.7 84.898 209.22C85.1646 208.727 85.298 208.14 85.298 207.46ZM96.9927 201.76C98.3127 201.76 99.3793 202.18 100.193 203.02C101.006 203.847 101.413 205.007 101.413 206.5V213H98.6127V206.88C98.6127 206 98.3927 205.327 97.9527 204.86C97.5127 204.38 96.9127 204.14 96.1527 204.14C95.3793 204.14 94.766 204.38 94.3127 204.86C93.8727 205.327 93.6527 206 93.6527 206.88V213H90.8527V201.92H93.6527V203.3C94.026 202.82 94.4993 202.447 95.0727 202.18C95.6593 201.9 96.2993 201.76 96.9927 201.76ZM127.501 199.04L123.601 213H120.301L117.681 203.06L114.941 213L111.661 213.02L107.901 199.04H110.901L113.361 209.88L116.201 199.04H119.321L122.001 209.82L124.481 199.04H127.501ZM139.629 207.22C139.629 207.62 139.603 207.98 139.549 208.3H131.449C131.516 209.1 131.796 209.727 132.289 210.18C132.783 210.633 133.389 210.86 134.109 210.86C135.149 210.86 135.889 210.413 136.329 209.52H139.349C139.029 210.587 138.416 211.467 137.509 212.16C136.603 212.84 135.489 213.18 134.169 213.18C133.103 213.18 132.143 212.947 131.289 212.48C130.449 212 129.789 211.327 129.309 210.46C128.843 209.593 128.609 208.593 128.609 207.46C128.609 206.313 128.843 205.307 129.309 204.44C129.776 203.573 130.429 202.907 131.269 202.44C132.109 201.973 133.076 201.74 134.169 201.74C135.223 201.74 136.163 201.967 136.989 202.42C137.829 202.873 138.476 203.52 138.929 204.36C139.396 205.187 139.629 206.14 139.629 207.22ZM136.729 206.42C136.716 205.7 136.456 205.127 135.949 204.7C135.443 204.26 134.823 204.04 134.089 204.04C133.396 204.04 132.809 204.253 132.329 204.68C131.863 205.093 131.576 205.673 131.469 206.42H136.729ZM144.473 198.2V213H141.673V198.2H144.473ZM152.319 204.22H150.379V213H147.539V204.22H146.279V201.92H147.539V201.36C147.539 200 147.926 199 148.699 198.36C149.473 197.72 150.639 197.42 152.199 197.46V199.82C151.519 199.807 151.046 199.92 150.779 200.16C150.513 200.4 150.379 200.833 150.379 201.46V201.92H152.319V204.22ZM153.414 207.42C153.414 206.3 153.634 205.307 154.074 204.44C154.527 203.573 155.134 202.907 155.894 202.44C156.667 201.973 157.527 201.74 158.474 201.74C159.301 201.74 160.021 201.907 160.634 202.24C161.261 202.573 161.761 202.993 162.134 203.5V201.92H164.954V213H162.134V211.38C161.774 211.9 161.274 212.333 160.634 212.68C160.007 213.013 159.281 213.18 158.454 213.18C157.521 213.18 156.667 212.94 155.894 212.46C155.134 211.98 154.527 211.307 154.074 210.44C153.634 209.56 153.414 208.553 153.414 207.42ZM162.134 207.46C162.134 206.78 162.001 206.2 161.734 205.72C161.467 205.227 161.107 204.853 160.654 204.6C160.201 204.333 159.714 204.2 159.194 204.2C158.674 204.2 158.194 204.327 157.754 204.58C157.314 204.833 156.954 205.207 156.674 205.7C156.407 206.18 156.274 206.753 156.274 207.42C156.274 208.087 156.407 208.673 156.674 209.18C156.954 209.673 157.314 210.053 157.754 210.32C158.207 210.587 158.687 210.72 159.194 210.72C159.714 210.72 160.201 210.593 160.654 210.34C161.107 210.073 161.467 209.7 161.734 209.22C162.001 208.727 162.134 208.14 162.134 207.46ZM170.489 203.64C170.849 203.053 171.315 202.593 171.889 202.26C172.475 201.927 173.142 201.76 173.889 201.76V204.7H173.149C172.269 204.7 171.602 204.907 171.149 205.32C170.709 205.733 170.489 206.453 170.489 207.48V213H167.689V201.92H170.489V203.64ZM186.075 207.22C186.075 207.62 186.048 207.98 185.995 208.3H177.895C177.961 209.1 178.241 209.727 178.735 210.18C179.228 210.633 179.835 210.86 180.555 210.86C181.595 210.86 182.335 210.413 182.775 209.52H185.795C185.475 210.587 184.861 211.467 183.955 212.16C183.048 212.84 181.935 213.18 180.615 213.18C179.548 213.18 178.588 212.947 177.735 212.48C176.895 212 176.235 211.327 175.755 210.46C175.288 209.593 175.055 208.593 175.055 207.46C175.055 206.313 175.288 205.307 175.755 204.44C176.221 203.573 176.875 202.907 177.715 202.44C178.555 201.973 179.521 201.74 180.615 201.74C181.668 201.74 182.608 201.967 183.435 202.42C184.275 202.873 184.921 203.52 185.375 204.36C185.841 205.187 186.075 206.14 186.075 207.22ZM183.175 206.42C183.161 205.7 182.901 205.127 182.395 204.7C181.888 204.26 181.268 204.04 180.535 204.04C179.841 204.04 179.255 204.253 178.775 204.68C178.308 205.093 178.021 205.673 177.915 206.42H183.175ZM199.364 213.14C198.057 213.14 196.857 212.833 195.764 212.22C194.671 211.607 193.804 210.76 193.164 209.68C192.524 208.587 192.204 207.353 192.204 205.98C192.204 204.62 192.524 203.4 193.164 202.32C193.804 201.227 194.671 200.373 195.764 199.76C196.857 199.147 198.057 198.84 199.364 198.84C200.684 198.84 201.884 199.147 202.964 199.76C204.057 200.373 204.917 201.227 205.544 202.32C206.184 203.4 206.504 204.62 206.504 205.98C206.504 207.353 206.184 208.587 205.544 209.68C204.917 210.76 204.057 211.607 202.964 212.22C201.871 212.833 200.671 213.14 199.364 213.14ZM199.364 210.64C200.204 210.64 200.944 210.453 201.584 210.08C202.224 209.693 202.724 209.147 203.084 208.44C203.444 207.733 203.624 206.913 203.624 205.98C203.624 205.047 203.444 204.233 203.084 203.54C202.724 202.833 202.224 202.293 201.584 201.92C200.944 201.547 200.204 201.36 199.364 201.36C198.524 201.36 197.777 201.547 197.124 201.92C196.484 202.293 195.984 202.833 195.624 203.54C195.264 204.233 195.084 205.047 195.084 205.98C195.084 206.913 195.264 207.733 195.624 208.44C195.984 209.147 196.484 209.693 197.124 210.08C197.777 210.453 198.524 210.64 199.364 210.64ZM211.387 203.64C211.747 203.053 212.214 202.593 212.787 202.26C213.374 201.927 214.04 201.76 214.787 201.76V204.7H214.047C213.167 204.7 212.5 204.907 212.047 205.32C211.607 205.733 211.387 206.453 211.387 207.48V213H208.587V201.92H211.387V203.64ZM221.013 201.74C221.84 201.74 222.566 201.907 223.193 202.24C223.82 202.56 224.313 202.98 224.673 203.5V201.92H227.493V213.08C227.493 214.107 227.286 215.02 226.873 215.82C226.46 216.633 225.84 217.273 225.013 217.74C224.186 218.22 223.186 218.46 222.013 218.46C220.44 218.46 219.146 218.093 218.133 217.36C217.133 216.627 216.566 215.627 216.433 214.36H219.213C219.36 214.867 219.673 215.267 220.153 215.56C220.646 215.867 221.24 216.02 221.933 216.02C222.746 216.02 223.406 215.773 223.913 215.28C224.42 214.8 224.673 214.067 224.673 213.08V211.36C224.313 211.88 223.813 212.313 223.173 212.66C222.546 213.007 221.826 213.18 221.013 213.18C220.08 213.18 219.226 212.94 218.453 212.46C217.68 211.98 217.066 211.307 216.613 210.44C216.173 209.56 215.953 208.553 215.953 207.42C215.953 206.3 216.173 205.307 216.613 204.44C217.066 203.573 217.673 202.907 218.433 202.44C219.206 201.973 220.066 201.74 221.013 201.74ZM224.673 207.46C224.673 206.78 224.54 206.2 224.273 205.72C224.006 205.227 223.646 204.853 223.193 204.6C222.74 204.333 222.253 204.2 221.733 204.2C221.213 204.2 220.733 204.327 220.293 204.58C219.853 204.833 219.493 205.207 219.213 205.7C218.946 206.18 218.813 206.753 218.813 207.42C218.813 208.087 218.946 208.673 219.213 209.18C219.493 209.673 219.853 210.053 220.293 210.32C220.746 210.587 221.226 210.72 221.733 210.72C222.253 210.72 222.74 210.593 223.193 210.34C223.646 210.073 224.006 209.7 224.273 209.22C224.54 208.727 224.673 208.14 224.673 207.46ZM229.508 207.42C229.508 206.3 229.728 205.307 230.168 204.44C230.621 203.573 231.228 202.907 231.988 202.44C232.761 201.973 233.621 201.74 234.568 201.74C235.394 201.74 236.114 201.907 236.728 202.24C237.354 202.573 237.854 202.993 238.228 203.5V201.92H241.048V213H238.228V211.38C237.868 211.9 237.368 212.333 236.728 212.68C236.101 213.013 235.374 213.18 234.548 213.18C233.614 213.18 232.761 212.94 231.988 212.46C231.228 211.98 230.621 211.307 230.168 210.44C229.728 209.56 229.508 208.553 229.508 207.42ZM238.228 207.46C238.228 206.78 238.094 206.2 237.828 205.72C237.561 205.227 237.201 204.853 236.748 204.6C236.294 204.333 235.808 204.2 235.288 204.2C234.768 204.2 234.288 204.327 233.848 204.58C233.408 204.833 233.048 205.207 232.768 205.7C232.501 206.18 232.368 206.753 232.368 207.42C232.368 208.087 232.501 208.673 232.768 209.18C233.048 209.673 233.408 210.053 233.848 210.32C234.301 210.587 234.781 210.72 235.288 210.72C235.808 210.72 236.294 210.593 236.748 210.34C237.201 210.073 237.561 209.7 237.828 209.22C238.094 208.727 238.228 208.14 238.228 207.46ZM249.922 201.76C251.242 201.76 252.309 202.18 253.122 203.02C253.936 203.847 254.342 205.007 254.342 206.5V213H251.542V206.88C251.542 206 251.322 205.327 250.882 204.86C250.442 204.38 249.842 204.14 249.082 204.14C248.309 204.14 247.696 204.38 247.242 204.86C246.802 205.327 246.582 206 246.582 206.88V213H243.782V201.92H246.582V203.3C246.956 202.82 247.429 202.447 248.002 202.18C248.589 201.9 249.229 201.76 249.922 201.76ZM258.425 200.6C257.932 200.6 257.518 200.447 257.185 200.14C256.865 199.82 256.705 199.427 256.705 198.96C256.705 198.493 256.865 198.107 257.185 197.8C257.518 197.48 257.932 197.32 258.425 197.32C258.918 197.32 259.325 197.48 259.645 197.8C259.978 198.107 260.145 198.493 260.145 198.96C260.145 199.427 259.978 199.82 259.645 200.14C259.325 200.447 258.918 200.6 258.425 200.6ZM259.805 201.92V213H257.005V201.92H259.805ZM265.131 210.7H270.071V213H261.951V210.74L266.791 204.22H261.971V201.92H270.011V204.18L265.131 210.7ZM271.519 207.42C271.519 206.3 271.739 205.307 272.179 204.44C272.633 203.573 273.239 202.907 273.999 202.44C274.773 201.973 275.633 201.74 276.579 201.74C277.406 201.74 278.126 201.907 278.739 202.24C279.366 202.573 279.866 202.993 280.239 203.5V201.92H283.059V213H280.239V211.38C279.879 211.9 279.379 212.333 278.739 212.68C278.113 213.013 277.386 213.18 276.559 213.18C275.626 213.18 274.773 212.94 273.999 212.46C273.239 211.98 272.633 211.307 272.179 210.44C271.739 209.56 271.519 208.553 271.519 207.42ZM280.239 207.46C280.239 206.78 280.106 206.2 279.839 205.72C279.573 205.227 279.213 204.853 278.759 204.6C278.306 204.333 277.819 204.2 277.299 204.2C276.779 204.2 276.299 204.327 275.859 204.58C275.419 204.833 275.059 205.207 274.779 205.7C274.513 206.18 274.379 206.753 274.379 207.42C274.379 208.087 274.513 208.673 274.779 209.18C275.059 209.673 275.419 210.053 275.859 210.32C276.313 210.587 276.793 210.72 277.299 210.72C277.819 210.72 278.306 210.593 278.759 210.34C279.213 210.073 279.573 209.7 279.839 209.22C280.106 208.727 280.239 208.14 280.239 207.46ZM289.054 204.22V209.58C289.054 209.953 289.141 210.227 289.314 210.4C289.501 210.56 289.807 210.64 290.234 210.64H291.534V213H289.774C287.414 213 286.234 211.853 286.234 209.56V204.22H284.914V201.92H286.234V199.18H289.054V201.92H291.534V204.22H289.054ZM294.968 200.6C294.475 200.6 294.061 200.447 293.728 200.14C293.408 199.82 293.248 199.427 293.248 198.96C293.248 198.493 293.408 198.107 293.728 197.8C294.061 197.48 294.475 197.32 294.968 197.32C295.461 197.32 295.868 197.48 296.188 197.8C296.521 198.107 296.688 198.493 296.688 198.96C296.688 199.427 296.521 199.82 296.188 200.14C295.868 200.447 295.461 200.6 294.968 200.6ZM296.348 201.92V213H293.548V201.92H296.348ZM304.034 213.18C302.968 213.18 302.008 212.947 301.154 212.48C300.301 212 299.628 211.327 299.134 210.46C298.654 209.593 298.414 208.593 298.414 207.46C298.414 206.327 298.661 205.327 299.154 204.46C299.661 203.593 300.348 202.927 301.214 202.46C302.081 201.98 303.048 201.74 304.114 201.74C305.181 201.74 306.148 201.98 307.014 202.46C307.881 202.927 308.561 203.593 309.054 204.46C309.561 205.327 309.814 206.327 309.814 207.46C309.814 208.593 309.554 209.593 309.034 210.46C308.528 211.327 307.834 212 306.954 212.48C306.088 212.947 305.114 213.18 304.034 213.18ZM304.034 210.74C304.541 210.74 305.014 210.62 305.454 210.38C305.908 210.127 306.268 209.753 306.534 209.26C306.801 208.767 306.934 208.167 306.934 207.46C306.934 206.407 306.654 205.6 306.094 205.04C305.548 204.467 304.874 204.18 304.074 204.18C303.274 204.18 302.601 204.467 302.054 205.04C301.521 205.6 301.254 206.407 301.254 207.46C301.254 208.513 301.514 209.327 302.034 209.9C302.568 210.46 303.234 210.74 304.034 210.74ZM318.008 201.76C319.328 201.76 320.395 202.18 321.208 203.02C322.022 203.847 322.428 205.007 322.428 206.5V213H319.628V206.88C319.628 206 319.408 205.327 318.968 204.86C318.528 204.38 317.928 204.14 317.168 204.14C316.395 204.14 315.782 204.38 315.328 204.86C314.888 205.327 314.668 206 314.668 206.88V213H311.868V201.92H314.668V203.3C315.042 202.82 315.515 202.447 316.088 202.18C316.675 201.9 317.315 201.76 318.008 201.76Z" fill="#1B83AA"/>
<defs>
<linearGradient id="paint0_linear_499_4294" x1="218.04" y1="103.769" x2="189.538" y2="181.601" gradientUnits="userSpaceOnUse">
<stop stop-color="#50B2DA"/>
<stop offset="0.78362" stop-color="#2A7794"/>
</linearGradient>
<linearGradient id="paint1_linear_499_4294" x1="122.172" y1="76.3032" x2="122.172" y2="184.997" gradientUnits="userSpaceOnUse">
<stop offset="0.42" stop-color="#50B2DA"/>
<stop offset="0.887611" stop-color="#246E89"/>
</linearGradient>
<linearGradient id="paint2_linear_499_4294" x1="161.63" y1="59.7534" x2="161.578" y2="102.629" gradientUnits="userSpaceOnUse">
<stop offset="0.422273" stop-color="#50B2DA"/>
<stop offset="1" stop-color="#2691B9"/>
</linearGradient>
<clipPath id="clip0_499_4294">
<rect width="141" height="185" fill="white" transform="translate(92)"/>
</clipPath>
</defs>
</svg>
