<svg width="500" height="500" viewBox="0 0 500 500" fill="none" xmlns="http://www.w3.org/2000/svg">
<rect width="500" height="500" fill="white"/>
<g clip-path="url(#clip0_499_4266)">
<path d="M303.856 263.93C303.856 264.974 304.044 266.051 303.822 267.043C303.081 270.282 302.562 273.583 300.748 276.519C299.288 278.804 297.388 280.775 295.159 282.318C292.165 284.496 289.102 286.617 286.308 289.04C282.886 291.976 279.572 295.055 277.61 299.212C277.04 300.352 277.131 301.84 276.92 303.169L277.49 303.459C278.061 302.998 278.682 302.587 279.201 302.074C281.751 299.554 284.112 296.806 286.849 294.514C290.921 291.093 295.159 287.888 299.493 284.821C303.397 282.099 306.168 278.043 307.284 273.418C308.468 268.834 308.785 264.069 308.219 259.369C307.883 256.415 306.229 256.49 304.227 257.419C303.2 257.892 302.202 258.44 300.862 259.129C300.755 258.359 300.698 257.581 300.691 256.803C301.01 251.757 301.261 246.706 301.74 241.671C302.052 237.617 302.634 233.589 303.48 229.612C304.341 225.94 305.134 222.16 307.369 218.922C308.337 217.593 309.66 216.564 311.185 215.951C311.447 215.954 311.704 216.023 311.932 216.151C312.161 216.28 312.353 216.464 312.491 216.687C313.135 219.486 313.945 222.291 314.133 225.136C314.635 232.549 314.772 239.995 315.188 247.418C315.485 252.738 315.976 258.046 316.415 263.354C316.771 268.217 316.499 273.106 315.605 277.899C314.677 283.457 312.093 288.606 308.191 292.672C305.83 295.129 302.915 297.051 300.246 299.206C296.151 302.513 292.073 305.905 289.484 310.564C287.87 313.466 286.724 316.636 285.52 319.749C284.825 321.556 284.003 322.799 281.796 323.005C279.589 323.21 277.507 324.145 275.329 324.362C272.312 324.652 269.261 324.572 266.204 324.572C265.985 324.524 265.782 324.421 265.615 324.272C265.447 324.123 265.32 323.934 265.246 323.723C265.08 320.65 264.915 317.571 264.938 314.492C264.938 312.297 265.286 310.107 265.4 307.912C265.69 302.826 266.749 297.812 268.542 293.043C270.253 288.35 273.35 284.616 277.239 281.531C280.291 279.114 283.291 276.616 286.479 274.381C289.667 272.146 293.191 270.065 296.579 267.956C298.832 266.547 301.142 265.202 303.423 263.822L303.856 263.93Z" fill="url(#paint0_linear_499_4266)"/>
<path d="M223.704 303.294C224.422 301.441 223.595 300.056 222.928 298.79C220.219 293.658 216.084 289.821 211.419 286.463C208.459 284.325 205.425 282.267 202.682 279.872C200.127 277.643 198.689 274.564 197.925 271.274C197.458 269.29 197.246 267.249 196.967 265.225C196.972 264.676 197.033 264.13 197.15 263.594C199.385 264.945 201.387 266.114 203.355 267.34C206.777 269.478 210.233 271.559 213.563 273.828C219.267 277.728 224.97 281.702 229.23 287.295C231.096 289.864 232.451 292.768 233.222 295.848C235.675 304.731 235.96 313.836 235.886 322.97C235.886 324.173 235.538 324.618 234.289 324.618C232.812 324.618 231.329 325.063 229.863 324.989C227.831 324.919 225.811 324.642 223.835 324.162C221.764 323.592 219.843 322.634 217.778 321.938C217.051 321.74 216.391 321.348 215.87 320.803C215.348 320.259 214.985 319.583 214.818 318.848C213.28 312.717 210.007 307.158 205.391 302.838C202.311 299.987 198.855 297.547 195.513 294.993C191.366 291.823 188.669 287.712 186.861 282.825C184.631 276.827 184.18 270.687 184.58 264.398C184.853 260.247 185.19 256.102 185.372 251.946C185.737 243.553 185.943 235.149 186.393 226.762C186.559 223.768 187.294 220.792 187.922 217.839C188.258 216.242 189.821 215.854 191.224 216.846C193.882 218.728 195.29 221.408 196.203 224.452C198.821 233.125 199.357 242.059 199.756 251.05C199.853 253.291 200.212 255.515 200.423 257.75C200.427 258.272 200.395 258.794 200.326 259.312C198.952 258.582 197.754 257.984 196.579 257.322C194.868 256.347 192.878 257.088 192.701 259.033C192.377 261.864 192.326 264.721 192.547 267.562C192.901 270.327 193.518 273.051 194.389 275.698C195.712 280.077 198.689 283.15 202.465 285.659C207.841 289.256 212.855 293.367 217.436 297.935C219.147 299.617 220.926 301.224 222.7 302.838C223.011 303.037 223.349 303.191 223.704 303.294Z" fill="url(#paint1_linear_499_4266)"/>
<path d="M187.545 199.798C188.215 199.738 188.889 199.738 189.559 199.798C192.41 200.294 195.262 200.625 198.005 201.452C201.438 202.54 204.809 203.811 208.105 205.261C210.524 206.281 212.816 207.587 215.177 208.75C215.513 208.885 215.86 208.988 216.215 209.058L216.506 208.699L209.605 202.341C210.084 202.267 210.375 202.125 210.546 202.21C212.257 203.105 213.968 204.04 215.645 204.97C216.951 205.682 218.229 206.446 219.563 207.096C219.791 207.166 220.034 207.174 220.266 207.12C220.498 207.066 220.712 206.952 220.886 206.789L213.649 200.922L213.831 200.619C217.983 201.965 221.246 204.947 225.05 207.051C223.401 204.479 220.801 202.718 219.637 199.867C227.542 204.097 233.627 210.329 238.868 217.445C244.11 224.56 247.68 232.691 250.172 241.272L250.742 241.095C251.068 240.103 251.404 239.117 251.706 238.119C253.316 232.771 255.552 227.633 258.368 222.81C261.321 217.795 264.926 213.194 269.09 209.126C271.662 206.583 274.422 204.217 277.2 201.885C278.283 200.967 279.538 200.089 281.448 200.403C280.525 201.497 279.538 202.353 278.973 203.43C278.471 204.394 276.475 204.417 277.262 206.344C277.57 206.087 277.798 205.922 278.004 205.728C279.806 204.018 281.996 202.946 284.277 201.982C284.791 201.76 285.15 201.207 285.652 200.927C286.164 200.711 286.694 200.543 287.237 200.426L282.561 205.477L282.743 205.762L290.642 202.147L290.859 202.507C289.775 204.856 286.57 205.506 285.868 208.653C294.007 203.841 302.242 200.312 311.732 200.517C311.453 200.716 311.202 201.041 310.9 201.087C304.934 202.41 299.533 205.146 294.11 207.803C285.857 211.84 278.785 217.456 272.569 224.19C269.87 227.094 267.455 230.248 265.354 233.609C263.25 236.996 260.267 239.499 256.902 241.517C255.836 242.055 254.672 242.371 253.48 242.446C252.185 242.606 250.857 242.446 249.551 242.515C245.815 242.737 242.861 241.015 240.02 238.866C237.18 236.716 235.492 233.489 233.405 230.667C229.413 225.245 224.998 220.176 219.677 216.008C217.209 214.053 214.602 212.28 211.875 210.706C207.735 208.328 203.514 206.047 199.18 204.046C196.414 202.775 193.374 202.085 190.465 201.121C189.479 200.796 188.509 200.426 187.528 200.078L187.545 199.798Z" fill="url(#paint2_linear_499_4266)"/>
<path d="M180.171 201.099C182.664 202.735 184.968 204.223 187.243 205.751C190.814 208.152 194.355 210.592 197.914 212.992C201.941 215.706 205.969 218.407 209.999 221.094C214.493 224.099 219.01 227.069 223.493 230.091C227.297 232.657 231.044 235.308 234.854 237.863C237.962 239.938 241.082 242.008 244.304 243.906C245.148 244.402 246.374 244.311 247.435 244.357C249.02 244.431 250.623 244.277 252.203 244.402C255.562 244.665 258.294 243.262 260.929 241.437C265.634 238.17 270.367 234.938 275.09 231.688C279.042 228.968 282.989 226.226 286.964 223.529C290.836 220.906 294.749 218.34 298.632 215.729C302.516 213.118 306.526 210.387 310.467 207.701C313.432 205.677 316.375 203.63 319.341 201.606C320.128 201.036 320.767 201.367 320.921 202.302C321.274 204.417 320.464 205.871 318.639 207.051C315.041 209.4 311.567 211.932 308.031 214.372C304.495 216.812 301.073 219.11 297.634 221.533C290.945 226.237 284.306 231.015 277.605 235.702C271.36 240.069 265.018 244.294 258.818 248.718C257.333 249.886 255.477 250.481 253.589 250.395C251.765 250.272 249.935 250.289 248.114 250.446C245.479 250.714 243.357 249.693 241.31 248.257C234.962 243.798 228.592 239.379 222.25 234.921C216.022 230.547 209.828 226.129 203.594 221.756C197.891 217.764 192.125 213.773 186.394 209.748C184.831 208.653 183.314 207.467 181.74 206.401C179.881 205.113 179.812 203.322 180.171 201.099Z" fill="#218DB5"/>
<path d="M251.091 218.899C251.222 218.243 251.296 217.564 251.484 216.926C252.243 214.349 253.366 211.823 253.72 209.195C253.994 207.159 253.577 204.93 253.047 202.923C251.382 196.537 246.676 192.284 242.102 187.996C239.16 185.242 236.257 182.46 234.654 178.674C233.79 176.727 233.13 174.696 232.686 172.613C232.178 170.038 231.914 167.421 231.899 164.796C231.899 162.59 232.43 160.389 232.726 158.188L233.24 158.028C233.585 158.472 233.86 158.966 234.055 159.494C234.363 161.05 234.5 162.647 234.785 164.209C235.658 169.027 238.053 172.727 242.41 175.224C246.283 177.442 249.984 179.968 253.743 182.38C257.289 184.729 260.026 188.113 261.579 192.073C263.057 195.553 263.283 199.437 262.218 203.065C260.564 208.767 257.045 213.271 253.315 217.673C252.767 218.224 252.176 218.732 251.547 219.189L251.091 218.899Z" fill="#33B4E9"/>
<path d="M248.952 169.192C245.125 169.192 241.053 165.11 240.848 161.415C240.608 157.248 245.239 152.994 248.73 152.977C252.939 152.977 257.073 157.538 257.056 161.222C257.039 165.087 252.642 169.42 248.952 169.192Z" fill="#33B4E9"/>
<path d="M300.338 229.014C300.064 230.724 299.87 232.115 299.625 233.489C299.208 235.827 298.553 238.142 298.364 240.491C297.948 245.657 297.714 250.839 297.509 256.022C297.458 257.351 297.948 258.702 297.891 260.013C297.837 260.912 297.477 261.765 296.87 262.431C295.918 263.383 294.692 264.061 293.283 265.065C293.215 264.52 293.175 263.972 293.163 263.423C293.494 257.151 293.733 250.908 294.212 244.659C294.448 241.642 294.913 238.648 295.604 235.702C296.237 233.102 297.486 230.707 300.338 229.014Z" fill="#218DB5"/>
<path d="M200.966 229.07C203.247 231.089 204.958 233.381 205.574 236.568C207.182 245.263 207.119 254.055 207.41 262.835C207.41 263.434 207.41 264.033 207.41 264.631C205.277 264.603 203.19 262.562 203.161 260.612C203.076 255.189 203.241 249.744 202.836 244.345C202.528 240.285 201.468 236.289 200.783 232.252C200.612 231.237 200.612 230.199 200.532 229.167L200.966 229.07Z" fill="#218DB5"/>
<path d="M248.701 209.559C246.825 204.308 242.502 201.007 238.846 197.227C235.892 194.165 233.337 190.818 231.939 186.753C231.731 185.836 231.624 184.899 231.62 183.959L232.23 183.594C233.485 185.014 234.688 186.445 236 187.831C238.492 190.419 241.133 192.871 243.563 195.522C246.614 198.875 248.695 202.757 249.186 207.353C249.207 208.08 249.175 208.808 249.089 209.531L248.701 209.559Z" fill="#FF9E3C"/>
<path d="M286.433 269.712C286.365 269.079 286.333 268.443 286.336 267.807C286.684 262.494 286.804 257.145 287.477 251.871C287.984 247.994 288.515 244.009 290.619 240.531C290.973 240.019 291.354 239.526 291.76 239.054L292.29 239.197C292.165 240.639 292.068 242.082 291.908 243.519C291.828 244.254 291.566 244.972 291.52 245.708C291.161 251.951 290.796 258.2 290.522 264.449C290.454 266.125 290.169 267.539 288.566 268.395C287.933 268.731 287.346 269.142 286.433 269.712Z" fill="#218DB5"/>
<path d="M208.995 238.512C210.079 240.827 211.328 243.073 212.212 245.468C214.225 250.925 213.7 256.7 214.071 262.362C214.197 264.272 214.396 266.176 214.545 268.064C214.584 268.503 214.545 268.947 214.545 269.86C213.085 268.754 211.893 267.95 210.843 267.009C210.512 266.707 210.484 265.983 210.455 265.447C210.164 259.471 209.982 253.473 209.588 247.532C209.423 245.08 208.796 242.663 208.408 240.228C208.368 239.716 208.368 239.201 208.408 238.689L208.995 238.512Z" fill="#218DB5"/>
<path d="M232.914 197.94C236.604 202.079 241.469 205.198 243.67 210.626C244.016 211.699 244.279 212.797 244.457 213.91L244.11 214.053C243.933 213.944 243.67 213.876 243.585 213.716C241.714 210.187 238.823 207.536 236.074 204.736C234.707 203.261 233.481 201.662 232.412 199.958C232.104 199.508 232.304 198.721 232.27 198.088L232.914 197.94Z" fill="#FF9E3C"/>
<path d="M246.095 252.846H254.233C253.794 254.728 248.273 255.058 246.095 252.846Z" fill="#218DB5"/>
<path d="M238.84 147.435C239.923 147.435 240.802 146.557 240.802 145.474C240.802 144.39 239.923 143.512 238.84 143.512C237.756 143.512 236.878 144.39 236.878 145.474C236.878 146.557 237.756 147.435 238.84 147.435Z" fill="#F99D3F"/>
<path d="M249.061 143.923C250.144 143.923 251.022 143.045 251.022 141.961C251.022 140.878 250.144 140 249.061 140C247.977 140 247.099 140.878 247.099 141.961C247.099 143.045 247.977 143.923 249.061 143.923Z" fill="#F99D3F"/>
<path d="M257.415 145.473C258.499 145.473 259.377 144.595 259.377 143.512C259.377 142.429 258.499 141.551 257.415 141.551C256.331 141.551 255.453 142.429 255.453 143.512C255.453 144.595 256.331 145.473 257.415 145.473Z" fill="#F99D3F"/>
<path d="M261.334 150.542C262.417 150.542 263.296 149.664 263.296 148.581C263.296 147.498 262.417 146.62 261.334 146.62C260.25 146.62 259.372 147.498 259.372 148.581C259.372 149.664 260.25 150.542 261.334 150.542Z" fill="#F99D3F"/>
</g>
<path d="M97.94 350.34H92.38L91.46 353H88.52L93.54 339.02H96.8L101.82 353H98.86L97.94 350.34ZM97.18 348.1L95.16 342.26L93.14 348.1H97.18ZM107.936 353.18C107.03 353.18 106.216 353.02 105.496 352.7C104.776 352.367 104.203 351.92 103.776 351.36C103.363 350.8 103.136 350.18 103.096 349.5H105.916C105.97 349.927 106.176 350.28 106.536 350.56C106.91 350.84 107.37 350.98 107.916 350.98C108.45 350.98 108.863 350.873 109.156 350.66C109.463 350.447 109.616 350.173 109.616 349.84C109.616 349.48 109.43 349.213 109.056 349.04C108.696 348.853 108.116 348.653 107.316 348.44C106.49 348.24 105.81 348.033 105.276 347.82C104.756 347.607 104.303 347.28 103.916 346.84C103.543 346.4 103.356 345.807 103.356 345.06C103.356 344.447 103.53 343.887 103.876 343.38C104.236 342.873 104.743 342.473 105.396 342.18C106.063 341.887 106.843 341.74 107.736 341.74C109.056 341.74 110.11 342.073 110.896 342.74C111.683 343.393 112.116 344.28 112.196 345.4H109.516C109.476 344.96 109.29 344.613 108.956 344.36C108.636 344.093 108.203 343.96 107.656 343.96C107.15 343.96 106.756 344.053 106.476 344.24C106.21 344.427 106.076 344.687 106.076 345.02C106.076 345.393 106.263 345.68 106.636 345.88C107.01 346.067 107.59 346.26 108.376 346.46C109.176 346.66 109.836 346.867 110.356 347.08C110.876 347.293 111.323 347.627 111.696 348.08C112.083 348.52 112.283 349.107 112.296 349.84C112.296 350.48 112.116 351.053 111.756 351.56C111.41 352.067 110.903 352.467 110.236 352.76C109.583 353.04 108.816 353.18 107.936 353.18ZM120.835 341.76C121.675 341.76 122.422 341.947 123.075 342.32C123.728 342.68 124.235 343.22 124.595 343.94C124.968 344.647 125.155 345.5 125.155 346.5V353H122.355V346.88C122.355 346 122.135 345.327 121.695 344.86C121.255 344.38 120.655 344.14 119.895 344.14C119.122 344.14 118.508 344.38 118.055 344.86C117.615 345.327 117.395 346 117.395 346.88V353H114.595V338.2H117.395V343.3C117.755 342.82 118.235 342.447 118.835 342.18C119.435 341.9 120.102 341.76 120.835 341.76ZM138.278 341.92V353H135.458V351.6C135.098 352.08 134.624 352.46 134.038 352.74C133.464 353.007 132.838 353.14 132.158 353.14C131.291 353.14 130.524 352.96 129.858 352.6C129.191 352.227 128.664 351.687 128.278 350.98C127.904 350.26 127.718 349.407 127.718 348.42V341.92H130.518V348.02C130.518 348.9 130.738 349.58 131.178 350.06C131.618 350.527 132.218 350.76 132.978 350.76C133.751 350.76 134.358 350.527 134.798 350.06C135.238 349.58 135.458 348.9 135.458 348.02V341.92H138.278ZM143.84 343.64C144.2 343.053 144.667 342.593 145.24 342.26C145.827 341.927 146.493 341.76 147.24 341.76V344.7H146.5C145.62 344.7 144.953 344.907 144.5 345.32C144.06 345.733 143.84 346.453 143.84 347.48V353H141.04V341.92H143.84V343.64ZM162.032 339.04V348.84C162.032 350.2 161.638 351.26 160.852 352.02C160.065 352.767 159.012 353.14 157.692 353.14C156.358 353.14 155.278 352.753 154.452 351.98C153.638 351.207 153.232 350.127 153.232 348.74H156.032C156.045 349.34 156.185 349.807 156.452 350.14C156.732 350.473 157.132 350.64 157.652 350.64C158.158 350.64 158.545 350.48 158.812 350.16C159.078 349.84 159.212 349.4 159.212 348.84V339.04H162.032ZM164.578 347.42C164.578 346.3 164.798 345.307 165.238 344.44C165.691 343.573 166.298 342.907 167.058 342.44C167.831 341.973 168.691 341.74 169.638 341.74C170.465 341.74 171.185 341.907 171.798 342.24C172.425 342.573 172.925 342.993 173.298 343.5V341.92H176.118V353H173.298V351.38C172.938 351.9 172.438 352.333 171.798 352.68C171.171 353.013 170.445 353.18 169.618 353.18C168.685 353.18 167.831 352.94 167.058 352.46C166.298 351.98 165.691 351.307 165.238 350.44C164.798 349.56 164.578 348.553 164.578 347.42ZM173.298 347.46C173.298 346.78 173.165 346.2 172.898 345.72C172.631 345.227 172.271 344.853 171.818 344.6C171.365 344.333 170.878 344.2 170.358 344.2C169.838 344.2 169.358 344.327 168.918 344.58C168.478 344.833 168.118 345.207 167.838 345.7C167.571 346.18 167.438 346.753 167.438 347.42C167.438 348.087 167.571 348.673 167.838 349.18C168.118 349.673 168.478 350.053 168.918 350.32C169.371 350.587 169.851 350.72 170.358 350.72C170.878 350.72 171.365 350.593 171.818 350.34C172.271 350.073 172.631 349.7 172.898 349.22C173.165 348.727 173.298 348.14 173.298 347.46ZM184.993 341.76C186.313 341.76 187.379 342.18 188.193 343.02C189.006 343.847 189.413 345.007 189.413 346.5V353H186.613V346.88C186.613 346 186.393 345.327 185.953 344.86C185.513 344.38 184.913 344.14 184.153 344.14C183.379 344.14 182.766 344.38 182.313 344.86C181.873 345.327 181.653 346 181.653 346.88V353H178.853V341.92H181.653V343.3C182.026 342.82 182.499 342.447 183.073 342.18C183.659 341.9 184.299 341.76 184.993 341.76ZM215.501 339.04L211.601 353H208.301L205.681 343.06L202.941 353L199.661 353.02L195.901 339.04H198.901L201.361 349.88L204.201 339.04H207.321L210.001 349.82L212.481 339.04H215.501ZM227.629 347.22C227.629 347.62 227.603 347.98 227.549 348.3H219.449C219.516 349.1 219.796 349.727 220.289 350.18C220.783 350.633 221.389 350.86 222.109 350.86C223.149 350.86 223.889 350.413 224.329 349.52H227.349C227.029 350.587 226.416 351.467 225.509 352.16C224.603 352.84 223.489 353.18 222.169 353.18C221.103 353.18 220.143 352.947 219.289 352.48C218.449 352 217.789 351.327 217.309 350.46C216.843 349.593 216.609 348.593 216.609 347.46C216.609 346.313 216.843 345.307 217.309 344.44C217.776 343.573 218.429 342.907 219.269 342.44C220.109 341.973 221.076 341.74 222.169 341.74C223.223 341.74 224.163 341.967 224.989 342.42C225.829 342.873 226.476 343.52 226.929 344.36C227.396 345.187 227.629 346.14 227.629 347.22ZM224.729 346.42C224.716 345.7 224.456 345.127 223.949 344.7C223.443 344.26 222.823 344.04 222.089 344.04C221.396 344.04 220.809 344.253 220.329 344.68C219.863 345.093 219.576 345.673 219.469 346.42H224.729ZM232.473 338.2V353H229.673V338.2H232.473ZM240.319 344.22H238.379V353H235.539V344.22H234.279V341.92H235.539V341.36C235.539 340 235.926 339 236.699 338.36C237.473 337.72 238.639 337.42 240.199 337.46V339.82C239.519 339.807 239.046 339.92 238.779 340.16C238.513 340.4 238.379 340.833 238.379 341.46V341.92H240.319V344.22ZM241.414 347.42C241.414 346.3 241.634 345.307 242.074 344.44C242.527 343.573 243.134 342.907 243.894 342.44C244.667 341.973 245.527 341.74 246.474 341.74C247.301 341.74 248.021 341.907 248.634 342.24C249.261 342.573 249.761 342.993 250.134 343.5V341.92H252.954V353H250.134V351.38C249.774 351.9 249.274 352.333 248.634 352.68C248.007 353.013 247.281 353.18 246.454 353.18C245.521 353.18 244.667 352.94 243.894 352.46C243.134 351.98 242.527 351.307 242.074 350.44C241.634 349.56 241.414 348.553 241.414 347.42ZM250.134 347.46C250.134 346.78 250.001 346.2 249.734 345.72C249.467 345.227 249.107 344.853 248.654 344.6C248.201 344.333 247.714 344.2 247.194 344.2C246.674 344.2 246.194 344.327 245.754 344.58C245.314 344.833 244.954 345.207 244.674 345.7C244.407 346.18 244.274 346.753 244.274 347.42C244.274 348.087 244.407 348.673 244.674 349.18C244.954 349.673 245.314 350.053 245.754 350.32C246.207 350.587 246.687 350.72 247.194 350.72C247.714 350.72 248.201 350.593 248.654 350.34C249.107 350.073 249.467 349.7 249.734 349.22C250.001 348.727 250.134 348.14 250.134 347.46ZM258.489 343.64C258.849 343.053 259.315 342.593 259.889 342.26C260.475 341.927 261.142 341.76 261.889 341.76V344.7H261.149C260.269 344.7 259.602 344.907 259.149 345.32C258.709 345.733 258.489 346.453 258.489 347.48V353H255.689V341.92H258.489V343.64ZM274.075 347.22C274.075 347.62 274.048 347.98 273.995 348.3H265.895C265.961 349.1 266.241 349.727 266.735 350.18C267.228 350.633 267.835 350.86 268.555 350.86C269.595 350.86 270.335 350.413 270.775 349.52H273.795C273.475 350.587 272.861 351.467 271.955 352.16C271.048 352.84 269.935 353.18 268.615 353.18C267.548 353.18 266.588 352.947 265.735 352.48C264.895 352 264.235 351.327 263.755 350.46C263.288 349.593 263.055 348.593 263.055 347.46C263.055 346.313 263.288 345.307 263.755 344.44C264.221 343.573 264.875 342.907 265.715 342.44C266.555 341.973 267.521 341.74 268.615 341.74C269.668 341.74 270.608 341.967 271.435 342.42C272.275 342.873 272.921 343.52 273.375 344.36C273.841 345.187 274.075 346.14 274.075 347.22ZM271.175 346.42C271.161 345.7 270.901 345.127 270.395 344.7C269.888 344.26 269.268 344.04 268.535 344.04C267.841 344.04 267.255 344.253 266.775 344.68C266.308 345.093 266.021 345.673 265.915 346.42H271.175ZM287.364 353.14C286.057 353.14 284.857 352.833 283.764 352.22C282.671 351.607 281.804 350.76 281.164 349.68C280.524 348.587 280.204 347.353 280.204 345.98C280.204 344.62 280.524 343.4 281.164 342.32C281.804 341.227 282.671 340.373 283.764 339.76C284.857 339.147 286.057 338.84 287.364 338.84C288.684 338.84 289.884 339.147 290.964 339.76C292.057 340.373 292.917 341.227 293.544 342.32C294.184 343.4 294.504 344.62 294.504 345.98C294.504 347.353 294.184 348.587 293.544 349.68C292.917 350.76 292.057 351.607 290.964 352.22C289.871 352.833 288.671 353.14 287.364 353.14ZM287.364 350.64C288.204 350.64 288.944 350.453 289.584 350.08C290.224 349.693 290.724 349.147 291.084 348.44C291.444 347.733 291.624 346.913 291.624 345.98C291.624 345.047 291.444 344.233 291.084 343.54C290.724 342.833 290.224 342.293 289.584 341.92C288.944 341.547 288.204 341.36 287.364 341.36C286.524 341.36 285.777 341.547 285.124 341.92C284.484 342.293 283.984 342.833 283.624 343.54C283.264 344.233 283.084 345.047 283.084 345.98C283.084 346.913 283.264 347.733 283.624 348.44C283.984 349.147 284.484 349.693 285.124 350.08C285.777 350.453 286.524 350.64 287.364 350.64ZM299.387 343.64C299.747 343.053 300.214 342.593 300.787 342.26C301.374 341.927 302.04 341.76 302.787 341.76V344.7H302.047C301.167 344.7 300.5 344.907 300.047 345.32C299.607 345.733 299.387 346.453 299.387 347.48V353H296.587V341.92H299.387V343.64ZM309.013 341.74C309.84 341.74 310.566 341.907 311.193 342.24C311.82 342.56 312.313 342.98 312.673 343.5V341.92H315.493V353.08C315.493 354.107 315.286 355.02 314.873 355.82C314.46 356.633 313.84 357.273 313.013 357.74C312.186 358.22 311.186 358.46 310.013 358.46C308.44 358.46 307.146 358.093 306.133 357.36C305.133 356.627 304.566 355.627 304.433 354.36H307.213C307.36 354.867 307.673 355.267 308.153 355.56C308.646 355.867 309.24 356.02 309.933 356.02C310.746 356.02 311.406 355.773 311.913 355.28C312.42 354.8 312.673 354.067 312.673 353.08V351.36C312.313 351.88 311.813 352.313 311.173 352.66C310.546 353.007 309.826 353.18 309.013 353.18C308.08 353.18 307.226 352.94 306.453 352.46C305.68 351.98 305.066 351.307 304.613 350.44C304.173 349.56 303.953 348.553 303.953 347.42C303.953 346.3 304.173 345.307 304.613 344.44C305.066 343.573 305.673 342.907 306.433 342.44C307.206 341.973 308.066 341.74 309.013 341.74ZM312.673 347.46C312.673 346.78 312.54 346.2 312.273 345.72C312.006 345.227 311.646 344.853 311.193 344.6C310.74 344.333 310.253 344.2 309.733 344.2C309.213 344.2 308.733 344.327 308.293 344.58C307.853 344.833 307.493 345.207 307.213 345.7C306.946 346.18 306.813 346.753 306.813 347.42C306.813 348.087 306.946 348.673 307.213 349.18C307.493 349.673 307.853 350.053 308.293 350.32C308.746 350.587 309.226 350.72 309.733 350.72C310.253 350.72 310.74 350.593 311.193 350.34C311.646 350.073 312.006 349.7 312.273 349.22C312.54 348.727 312.673 348.14 312.673 347.46ZM317.508 347.42C317.508 346.3 317.728 345.307 318.168 344.44C318.621 343.573 319.228 342.907 319.988 342.44C320.761 341.973 321.621 341.74 322.568 341.74C323.394 341.74 324.114 341.907 324.728 342.24C325.354 342.573 325.854 342.993 326.228 343.5V341.92H329.048V353H326.228V351.38C325.868 351.9 325.368 352.333 324.728 352.68C324.101 353.013 323.374 353.18 322.548 353.18C321.614 353.18 320.761 352.94 319.988 352.46C319.228 351.98 318.621 351.307 318.168 350.44C317.728 349.56 317.508 348.553 317.508 347.42ZM326.228 347.46C326.228 346.78 326.094 346.2 325.828 345.72C325.561 345.227 325.201 344.853 324.748 344.6C324.294 344.333 323.808 344.2 323.288 344.2C322.768 344.2 322.288 344.327 321.848 344.58C321.408 344.833 321.048 345.207 320.768 345.7C320.501 346.18 320.368 346.753 320.368 347.42C320.368 348.087 320.501 348.673 320.768 349.18C321.048 349.673 321.408 350.053 321.848 350.32C322.301 350.587 322.781 350.72 323.288 350.72C323.808 350.72 324.294 350.593 324.748 350.34C325.201 350.073 325.561 349.7 325.828 349.22C326.094 348.727 326.228 348.14 326.228 347.46ZM337.922 341.76C339.242 341.76 340.309 342.18 341.122 343.02C341.936 343.847 342.342 345.007 342.342 346.5V353H339.542V346.88C339.542 346 339.322 345.327 338.882 344.86C338.442 344.38 337.842 344.14 337.082 344.14C336.309 344.14 335.696 344.38 335.242 344.86C334.802 345.327 334.582 346 334.582 346.88V353H331.782V341.92H334.582V343.3C334.956 342.82 335.429 342.447 336.002 342.18C336.589 341.9 337.229 341.76 337.922 341.76ZM346.425 340.6C345.932 340.6 345.518 340.447 345.185 340.14C344.865 339.82 344.705 339.427 344.705 338.96C344.705 338.493 344.865 338.107 345.185 337.8C345.518 337.48 345.932 337.32 346.425 337.32C346.918 337.32 347.325 337.48 347.645 337.8C347.978 338.107 348.145 338.493 348.145 338.96C348.145 339.427 347.978 339.82 347.645 340.14C347.325 340.447 346.918 340.6 346.425 340.6ZM347.805 341.92V353H345.005V341.92H347.805ZM353.131 350.7H358.071V353H349.951V350.74L354.791 344.22H349.971V341.92H358.011V344.18L353.131 350.7ZM359.519 347.42C359.519 346.3 359.739 345.307 360.179 344.44C360.633 343.573 361.239 342.907 361.999 342.44C362.773 341.973 363.633 341.74 364.579 341.74C365.406 341.74 366.126 341.907 366.739 342.24C367.366 342.573 367.866 342.993 368.239 343.5V341.92H371.059V353H368.239V351.38C367.879 351.9 367.379 352.333 366.739 352.68C366.113 353.013 365.386 353.18 364.559 353.18C363.626 353.18 362.773 352.94 361.999 352.46C361.239 351.98 360.633 351.307 360.179 350.44C359.739 349.56 359.519 348.553 359.519 347.42ZM368.239 347.46C368.239 346.78 368.106 346.2 367.839 345.72C367.573 345.227 367.213 344.853 366.759 344.6C366.306 344.333 365.819 344.2 365.299 344.2C364.779 344.2 364.299 344.327 363.859 344.58C363.419 344.833 363.059 345.207 362.779 345.7C362.513 346.18 362.379 346.753 362.379 347.42C362.379 348.087 362.513 348.673 362.779 349.18C363.059 349.673 363.419 350.053 363.859 350.32C364.313 350.587 364.793 350.72 365.299 350.72C365.819 350.72 366.306 350.593 366.759 350.34C367.213 350.073 367.573 349.7 367.839 349.22C368.106 348.727 368.239 348.14 368.239 347.46ZM377.054 344.22V349.58C377.054 349.953 377.141 350.227 377.314 350.4C377.501 350.56 377.807 350.64 378.234 350.64H379.534V353H377.774C375.414 353 374.234 351.853 374.234 349.56V344.22H372.914V341.92H374.234V339.18H377.054V341.92H379.534V344.22H377.054ZM382.968 340.6C382.475 340.6 382.061 340.447 381.728 340.14C381.408 339.82 381.248 339.427 381.248 338.96C381.248 338.493 381.408 338.107 381.728 337.8C382.061 337.48 382.475 337.32 382.968 337.32C383.461 337.32 383.868 337.48 384.188 337.8C384.521 338.107 384.688 338.493 384.688 338.96C384.688 339.427 384.521 339.82 384.188 340.14C383.868 340.447 383.461 340.6 382.968 340.6ZM384.348 341.92V353H381.548V341.92H384.348ZM392.034 353.18C390.968 353.18 390.008 352.947 389.154 352.48C388.301 352 387.628 351.327 387.134 350.46C386.654 349.593 386.414 348.593 386.414 347.46C386.414 346.327 386.661 345.327 387.154 344.46C387.661 343.593 388.348 342.927 389.214 342.46C390.081 341.98 391.048 341.74 392.114 341.74C393.181 341.74 394.148 341.98 395.014 342.46C395.881 342.927 396.561 343.593 397.054 344.46C397.561 345.327 397.814 346.327 397.814 347.46C397.814 348.593 397.554 349.593 397.034 350.46C396.528 351.327 395.834 352 394.954 352.48C394.088 352.947 393.114 353.18 392.034 353.18ZM392.034 350.74C392.541 350.74 393.014 350.62 393.454 350.38C393.908 350.127 394.268 349.753 394.534 349.26C394.801 348.767 394.934 348.167 394.934 347.46C394.934 346.407 394.654 345.6 394.094 345.04C393.548 344.467 392.874 344.18 392.074 344.18C391.274 344.18 390.601 344.467 390.054 345.04C389.521 345.6 389.254 346.407 389.254 347.46C389.254 348.513 389.514 349.327 390.034 349.9C390.568 350.46 391.234 350.74 392.034 350.74ZM406.008 341.76C407.328 341.76 408.395 342.18 409.208 343.02C410.022 343.847 410.428 345.007 410.428 346.5V353H407.628V346.88C407.628 346 407.408 345.327 406.968 344.86C406.528 344.38 405.928 344.14 405.168 344.14C404.395 344.14 403.782 344.38 403.328 344.86C402.888 345.327 402.668 346 402.668 346.88V353H399.868V341.92H402.668V343.3C403.042 342.82 403.515 342.447 404.088 342.18C404.675 341.9 405.315 341.76 406.008 341.76Z" fill="#1B83AA"/>
<defs>
<linearGradient id="paint0_linear_499_4266" x1="306.04" y1="243.769" x2="277.538" y2="321.601" gradientUnits="userSpaceOnUse">
<stop stop-color="#50B2DA"/>
<stop offset="0.78362" stop-color="#2A7794"/>
</linearGradient>
<linearGradient id="paint1_linear_499_4266" x1="210.172" y1="216.303" x2="210.172" y2="324.997" gradientUnits="userSpaceOnUse">
<stop offset="0.42" stop-color="#50B2DA"/>
<stop offset="0.887611" stop-color="#246E89"/>
</linearGradient>
<linearGradient id="paint2_linear_499_4266" x1="249.63" y1="199.753" x2="249.578" y2="242.629" gradientUnits="userSpaceOnUse">
<stop offset="0.422273" stop-color="#50B2DA"/>
<stop offset="1" stop-color="#2691B9"/>
</linearGradient>
<clipPath id="clip0_499_4266">
<rect width="141" height="185" fill="white" transform="translate(180 140)"/>
</clipPath>
</defs>
</svg>
